<?xml version="1.0" encoding="UTF-8" standalone="no"?>
<svg
   xmlns:dc="http://purl.org/dc/elements/1.1/"
   xmlns:cc="http://creativecommons.org/ns#"
   xmlns:rdf="http://www.w3.org/1999/02/22-rdf-syntax-ns#"
   xmlns:svg="http://www.w3.org/2000/svg"
   xmlns="http://www.w3.org/2000/svg"
   xmlns:sodipodi="http://sodipodi.sourceforge.net/DTD/sodipodi-0.dtd"
   xmlns:inkscape="http://www.inkscape.org/namespaces/inkscape"
   version="1.1"
   id="svg833"
   width="252"
   height="264"
   viewBox="0 0 252 264"
   sodipodi:docname="Profile.svg"
   inkscape:version="1.0.1 (3bc2e813f5, 2020-09-07)">
  <metadata
     id="metadata839">
    <rdf:RDF>
      <cc:Work
         rdf:about="">
        <dc:format>image/svg+xml</dc:format>
        <dc:type
           rdf:resource="http://purl.org/dc/dcmitype/StillImage" />
        <dc:title></dc:title>
      </cc:Work>
    </rdf:RDF>
  </metadata>
  <defs
     id="defs837" />
  <sodipodi:namedview
     pagecolor="#ffffff"
     bordercolor="#666666"
     borderopacity="1"
     objecttolerance="10"
     gridtolerance="10"
     guidetolerance="10"
     inkscape:pageopacity="0"
     inkscape:pageshadow="2"
     inkscape:window-width="1920"
     inkscape:window-height="1017"
     id="namedview835"
     showgrid="false"
     inkscape:zoom="0.94561502"
     inkscape:cx="117.8833"
     inkscape:cy="247.28888"
     inkscape:window-x="-8"
     inkscape:window-y="-8"
     inkscape:window-maximized="1"
     inkscape:current-layer="g841" />
  <g
     inkscape:groupmode="layer"
     inkscape:label="Image"
     id="g841">
    <path
       style="fill:#000000;stroke-width:1.04019"
       d="M 93.101736,243.73641 C 69.560069,236.95842 47.132586,222.39003 33.078445,204.74662 27.065188,197.19764 20.193346,187.0552 20.193346,185.72895 c 0,-0.46112 8.202194,-0.90855 18.227097,-0.99429 10.024904,-0.0857 22.848052,-0.49059 28.495885,-0.89965 l 10.268788,-0.74378 0.330839,-3.54916 0.330851,-3.54915 -19.841547,0.91497 c -10.912845,0.50323 -24.924585,0.91497 -31.137202,0.91497 H 15.572391 l -3.383083,-8.69751 C 3.143133,145.86873 1.4372926,114.82903 7.9262937,91.554838 l 1.1378941,-4.081296 11.4691272,0.739561 c 6.308024,0.406765 14.703804,1.145995 18.657288,1.642739 3.953483,0.496746 13.937979,1.23609 22.187768,1.642993 l 14.999628,0.739833 0.670746,-2.742185 c 0.488888,-1.998708 1.155138,-2.582486 2.457312,-2.153155 1.535676,0.506323 1.570262,0.415841 0.246255,-0.644238 -1.169717,-0.936563 -1.229944,-1.362408 -0.250321,-1.769911 0.709502,-0.295139 1.076159,-0.89163 0.814807,-1.325546 -1.245254,-2.067449 -1.542978,-7.831224 -0.472847,-9.154293 0.89776,-1.109974 0.89743,-1.824871 -0.0011,-2.936098 -0.905604,-1.119668 -0.874469,-1.814515 0.13098,-2.922697 1.4224,-1.567722 2.107976,-3.532785 2.208875,-6.331242 0.03502,-0.971616 0.426772,-1.536323 0.870537,-1.254907 0.443756,0.281415 0.823207,-0.109014 0.843222,-0.867617 0.02002,-0.758605 0.742104,-0.193897 1.604653,1.254906 1.486838,2.49737 1.543274,2.511058 1.086633,0.263419 -0.264914,-1.303924 -0.03553,-2.37077 0.509691,-2.37077 0.545231,0 0.673816,-0.527165 0.285738,-1.171477 -0.388078,-0.644312 -0.277564,-1.474082 0.245589,-1.843932 0.523165,-0.369851 2.060987,-2.331995 3.417391,-4.360321 1.356405,-2.028325 3.076724,-4.072615 3.822916,-4.542881 0.7462,-0.470255 1.108424,-1.267266 0.804938,-1.771123 -0.303484,-0.503857 -0.08215,-1.21393 0.491846,-1.577943 0.573991,-0.364003 1.04363,-2.056301 1.04363,-3.760664 0,-1.704373 0.511525,-3.098849 1.136745,-3.098849 0.625194,0 0.870759,-0.711231 0.545662,-1.580514 -0.360047,-0.962754 -0.002,-1.580514 0.917008,-1.580514 0.829455,0 1.515165,0.592693 1.523805,1.317095 0.0114,0.953776 0.26299,0.91654 0.91209,-0.134986 0.50062,-0.811025 1.44894,-1.10165 2.14804,-0.658306 0.90102,0.571388 1.05765,0.166408 0.55905,-1.445526 -0.54989,-1.777772 -0.266,-2.239304 1.3774,-2.239304 1.13854,0 3.32151,-1.190094 4.85111,-2.644652 1.52958,-1.454557 2.99826,-2.421779 3.26373,-2.149372 0.75603,0.775758 6.38357,-2.507748 6.38357,-3.724617 0,-0.598846 0.4621,-0.795767 1.02689,-0.437602 0.56478,0.358165 1.02688,-0.06006 1.02688,-0.9293 0,-0.869283 0.48062,-1.88531 1.06803,-2.257826 0.68703,-0.435685 0.84058,0.252597 0.43045,1.929352 -0.59165,2.418829 -0.39113,2.585552 2.78276,2.313652 1.88119,-0.161149 4.03319,0.216087 4.78222,0.838315 0.98688,0.819833 1.58397,0.762566 2.16856,-0.208006 0.44367,-0.736636 1.20558,-1.263273 1.69309,-1.170318 0.48752,0.09294 1.04866,-0.459234 1.24698,-1.2271 0.24685,-0.955863 -0.016,-0.897721 -0.83357,0.184393 -0.99318,1.314544 -1.11109,1.190053 -0.70064,-0.739734 0.27145,-1.276137 0.19599,-2.502353 -0.16763,-2.72492 -0.94705,-0.579649 1.04856,-0.03982 3.3581,0.908448 1.38068,0.566866 1.74458,0.440183 1.223,-0.425759 -0.47237,-0.784241 0.006,-1.232738 1.31127,-1.232738 1.12955,0 2.38787,0.554728 2.79624,1.232738 0.49925,0.828883 0.18267,1.012307 -0.96628,0.559912 -0.93982,-0.370061 -1.74311,-0.332097 -1.78508,0.0844 -0.042,0.416444 -0.27011,1.824028 -0.50699,3.127952 -0.33791,1.860127 0.0445,2.37077 1.77578,2.37077 2.17854,0 2.1817,-0.02824 0.25027,-2.229809 -1.9276,-2.19723 -1.92617,-2.223825 0.0976,-1.820067 1.61784,0.322773 1.99857,1.131543 1.79373,3.810323 -0.19154,2.504893 0.1659,3.400581 1.35695,3.400581 1.46662,0 1.46765,0.153225 0.0112,1.647696 -0.88319,0.906234 -2.07144,1.352403 -2.64056,0.991487 -0.56912,-0.360904 -1.03476,-0.407825 -1.03476,-0.104209 0,0.303574 0.98296,1.091745 2.18435,1.751495 1.69601,0.931354 2.37224,0.887573 3.0248,-0.195837 0.46225,-0.767455 1.11863,-1.109932 1.45863,-0.76106 0.34,0.348862 -0.075,1.345534 -0.92214,2.214817 -0.84719,0.869281 -1.21576,1.976948 -0.81907,2.46147 0.3967,0.484522 -0.0102,0.31193 -0.9033,-0.383549 -1.28945,-1.003657 -2.03086,-0.926033 -3.59408,0.3763 -1.08323,0.902431 -1.44426,1.373772 -0.80226,1.047416 0.64198,-0.326354 1.73405,0.107422 2.42682,0.963935 0.69277,0.856522 1.74072,1.252198 2.32878,0.879281 0.64768,-0.410743 0.75854,-0.162286 0.28119,0.630226 -0.4334,0.719554 -1.66002,1.074285 -2.72585,0.788285 -1.06584,-0.285988 -1.93787,-0.03635 -1.93787,0.554634 0,0.591049 1.34911,0.871453 2.998,0.623134 1.94126,-0.292353 3.84155,0.251902 5.39112,1.544035 l 2.39311,1.995536 -4.36423,-0.622407 c -2.65855,-0.379154 -4.36425,-0.20573 -4.36425,0.443725 0,0.58637 -0.72041,1.066119 -1.60091,1.066119 -0.94164,0 -1.30144,-0.497198 -0.87371,-1.207344 0.50628,-0.84058 -0.0478,-1.007757 -1.82401,-0.550325 -1.40316,0.361359 -5.85142,0.971742 -9.88498,1.356408 -6.06559,0.578447 -7.43809,0.420553 -7.93681,-0.913073 -0.49703,-1.329012 -1.13735,-1.405519 -3.64253,-0.435243 -2.5526,0.988633 -2.74762,1.295601 -1.21753,1.916184 1.56044,0.632891 1.49902,0.749584 -0.42793,0.813016 -1.23741,0.04077 -2.50254,-0.345426 -2.81134,-0.858135 -0.93756,-1.556584 -6.74789,-2.033299 -6.74789,-0.553643 0,1.916099 -2.40054,2.429545 -3.59406,0.76873 -0.78656,-1.094485 -1.02689,-0.839273 -1.02689,1.090459 0,1.741326 0.47569,2.377388 1.54032,2.059611 0.84718,-0.252861 0.25585,0.304174 -1.31407,1.237857 -1.5699,0.933694 -2.58563,2.14383 -2.25714,2.689192 0.32849,0.545372 -0.0731,0.727605 -0.892556,0.40498 -0.819372,-0.322636 -1.838958,-0.0064 -2.265739,0.701705 -0.478585,0.794567 -0.348803,1.017419 0.338605,0.581482 0.613025,-0.388753 1.451651,-0.1064 1.863622,0.627454 0.411958,0.733853 0.383138,0.995355 -0.06408,0.581102 -1.114875,-1.032729 -4.855138,1.141626 -4.105291,2.386564 0.331549,0.550442 0.08615,1.000802 -0.545271,1.000802 -0.631449,0 -0.94246,0.355617 -0.691141,0.790258 0.614812,1.063254 -2.966694,7.749342 -3.730969,6.965122 -0.331178,-0.33981 -0.583525,0.265516 -0.560769,1.345186 0.02269,1.07967 -0.256781,3.148415 -0.621159,4.597219 -0.364387,1.448805 -0.893989,3.786353 -1.176906,5.194548 -0.282915,1.408195 -0.760034,2.968204 -1.060273,3.466678 -0.300247,0.498483 0.763589,0.54829 2.36406,0.110687 1.600474,-0.437611 5.77453,-0.778033 9.275658,-0.756496 3.501139,0.02149 6.202339,-0.232124 6.002649,-0.563684 -0.5453,-0.905404 16.61511,-0.717196 17.50113,0.191947 0.42116,0.432155 -0.0316,0.785726 -1.00632,0.785726 -0.97465,0 -1.48183,0.481888 -1.12708,1.070871 0.35474,0.588974 1.07517,0.798066 1.60094,0.464651 0.52574,-0.333415 0.95592,-0.07607 0.95592,0.57183 0,0.647921 0.43017,0.905251 0.95592,0.571839 0.52577,-0.333411 1.24619,-0.124321 1.60092,0.464649 0.35475,0.588979 -0.0609,1.070859 -0.92369,1.070859 -0.98974,0 -1.34502,0.598112 -0.96264,1.620572 0.46767,1.250543 -0.24306,1.106489 -3.11287,-0.630928 -2.0454,-1.238304 -3.71892,-2.014396 -3.71892,-1.724629 0,0.289758 1.51609,1.444696 3.36908,2.566523 6.32955,3.831976 30.19288,3.998373 27.90178,0.194548 -0.27389,-0.454739 -0.0208,-1.129397 0.56239,-1.499244 0.58321,-0.369837 0.75038,-1.1871 0.37151,-1.816114 -0.38658,-0.64186 -0.21587,-0.843733 0.3891,-0.460091 0.59286,0.375976 1.30709,0.07095 1.58715,-0.678017 0.44334,-1.18549 2.40942,-1.406784 7.72491,-0.869504 0.73931,0.07471 1.05862,0.610015 0.70955,1.189537 -0.39068,0.648632 1.46107,1.083704 4.81707,1.131782 7.83279,0.112204 14.95077,1.364056 13.42384,2.360861 -0.6984,0.455914 -3.00888,0.333383 -5.13441,-0.272298 -2.12552,-0.60568 -5.94401,-1.073824 -8.48554,-1.040326 -4.05036,0.05343 -4.31224,0.187471 -2.12079,1.085847 1.37508,0.563704 3.0844,0.794886 3.79848,0.513712 0.80472,-0.316862 1.08126,0.06934 0.72734,1.015629 -0.7304,1.953076 -3.16435,1.93181 -6.88665,-0.06016 -3.39993,-1.819458 -4.07969,-1.947691 -3.27917,-0.618602 0.3165,0.525469 -0.28047,0.725729 -1.32662,0.44501 -1.04615,-0.280711 -2.54859,0.152988 -3.33877,0.96379 -0.79018,0.810792 -1.78735,1.440299 -2.21595,1.398906 -1.51505,-0.146339 -4.57845,6.384037 -5.29511,11.287859 -0.44181,3.02308 -1.25445,4.96886 -2.07521,4.96886 -1.62209,0 -2.86128,-5.54724 -2.01348,-9.013312 0.49146,-2.00925 0.12735,-2.60917 -1.90054,-3.13143 -1.37966,-0.35531 -4.3128,-0.49448 -6.5181,-0.30927 -3.56187,0.29914 -3.97873,0.62223 -3.73297,2.89311 0.38362,3.544672 -1.7586,9.755132 -3.19777,9.270612 -0.65252,-0.21969 -1.32981,-2.14086 -1.50512,-4.26927 -0.21956,-2.666202 -0.81762,-3.869842 -1.92276,-3.869842 -1.30463,0 -1.36701,0.29307 -0.33426,1.56998 1.05082,1.299172 0.8511,1.732202 -1.15785,2.510472 -2.86551,1.11012 -4.32102,0.49066 -3.56942,-1.5191 0.29623,-0.79209 0.0967,-1.720432 -0.44344,-2.062952 -0.92966,-0.58956 -1.15606,0.0123 -1.39814,3.716312 -0.0754,1.15361 -1.07327,1.48934 -3.69438,1.24296 -3.27732,-0.30805 -5.15013,-1.66771 -6.63471,-4.816842 -0.3816,-0.80944 -0.73489,-0.76159 -1.15161,0.15599 -0.33064,0.72802 -1.1393,1.048482 -1.79704,0.71212 -0.65774,-0.33635 -0.2717,0.19866 0.85788,1.188872 1.82425,1.59921 1.84354,1.7257 0.17272,1.13181 -1.03456,-0.36772 -2.641401,-0.66859 -3.570744,-0.66859 -1.337107,0 -1.157223,-0.54639 0.861998,-2.618312 2.855486,-2.92999 10.661396,-4.8958 14.162856,-3.56672 1.32626,0.50342 2.23603,0.43386 2.23603,-0.17098 0,-0.56085 -0.53912,-1.01973 -1.19804,-1.01973 -0.65891,0 -0.93289,-0.27203 -0.60886,-0.60453 0.32403,-0.33248 1.99544,0.14167 3.71424,1.05367 4.53393,2.40578 5.35253,2.16101 4.14496,-1.23939 -1.50938,-4.250252 -6.88639,-7.460974 -10.71072,-6.395609 -1.67375,0.466259 -5.12261,1.114522 -7.66413,1.440582 -2.54153,0.326061 -5.545156,0.733403 -6.674723,0.905206 -3.872175,0.588951 -4.656227,-0.482818 -2.265993,-3.097561 1.434899,-1.56967 3.772501,-2.632932 6.373516,-2.899005 2.25913,-0.231103 0.87095,-0.376711 -3.084863,-0.323563 -6.742076,0.09061 -7.370866,0.305871 -10.043368,3.439029 -1.997926,2.342293 -2.486905,3.573302 -1.634165,4.114082 0.737454,0.467657 0.945457,0.321102 0.528,-0.371999 -0.630914,-1.04747 1.081663,-3.034979 1.882783,-2.185061 0.191256,0.202923 -0.33883,4.162169 -1.177965,8.798349 -0.839134,4.636182 -1.565466,9.001252 -1.614078,9.700152 -0.168623,2.42426 -1.800466,0.17072 -1.918968,-2.65002 -0.07496,-1.78395 -0.293278,-2.15162 -0.588741,-0.99149 -0.25828,1.01416 -0.793551,1.84393 -1.189485,1.84393 -0.395934,0 -0.607952,6.28254 -0.471153,13.9612 0.27204,15.27006 0.672852,20.47512 1.65422,21.48208 0.353112,0.36232 0.228418,1.45175 -0.277083,2.42093 -0.547451,1.04962 -0.532837,2.37832 0.03615,3.28592 0.82903,1.32243 1.095012,1.31493 2.013299,-0.0567 0.802495,-1.19874 0.907831,-0.91413 0.436094,1.17818 -0.490417,2.17519 -0.03327,3.23384 2.161046,5.00496 1.530665,1.23545 2.181603,2.24626 1.446524,2.24626 -1.968548,0 -0.256967,1.40556 2.175402,1.78646 1.399296,0.21912 1.87434,-0.10899 1.437702,-0.99302 -0.358659,-0.72615 0.06047,-0.42066 0.93147,0.67889 0.870957,1.09954 1.372414,2.34973 1.114328,2.77822 -0.258074,0.42848 0.244891,1.3872 1.117717,2.13049 1.307521,1.11345 1.531545,1.08809 1.272291,-0.14405 -0.17306,-0.82249 0.297785,-1.365 1.046327,-1.20556 0.893227,0.19025 1.156267,-0.37194 0.765348,-1.63579 -0.327603,-1.05911 0.133933,-2.8491 1.025643,-3.97776 0.891705,-1.12864 1.328695,-1.45937 0.971085,-0.73497 -0.3576,0.7244 -0.16082,1.31709 0.43729,1.31709 0.59812,0 1.102,-0.59269 1.11975,-1.31709 0.0178,-0.7244 1.14836,-2.14993 2.51245,-3.16785 2.22803,-1.66258 2.57188,-1.6826 3.38222,-0.19683 0.81272,1.49012 1.04248,1.48027 2.32022,-0.0995 1.83624,-2.27029 2.16581,-4.68885 0.64718,-4.74934 -0.65601,-0.0261 0.19354,-0.69887 1.8879,-1.49495 1.69435,-0.79608 2.4147,-1.48591 1.60077,-1.53298 -2.11848,-0.12252 1.96274,-3.16945 4.30378,-3.2131 0.98837,-0.0185 1.68152,-0.60465 1.54031,-1.30271 -0.14118,-0.69807 0.32091,-1.35003 1.02689,-1.44881 0.70598,-0.0987 1.61747,-0.23887 2.02554,-0.31131 0.40804,-0.0724 -0.28591,-0.87041 -1.54213,-1.77327 -1.25623,-0.90285 -2.78976,-1.32085 -3.40785,-0.92888 -0.69671,0.44182 -0.98473,-0.0355 -0.75787,-1.25605 0.40438,-2.17557 3.73854,-3.04011 7.74515,-2.00827 1.92354,0.49537 2.43825,1.1802 2.04543,2.72152 -0.48697,1.91078 1.27626,2.73482 4.67395,2.18434 0.42359,-0.0686 0.77016,0.29408 0.77016,0.80601 0,0.51193 0.92483,1.17893 2.05518,1.48225 1.13034,0.3033 1.79622,0.12153 1.47972,-0.40395 -0.31652,-0.52548 0.14495,-0.95541 1.02545,-0.95541 0.95161,0 1.63381,0.96155 1.68199,2.37077 0.0445,1.30393 0.31414,1.77808 0.59902,1.05368 0.28486,-0.7244 1.18884,-1.3171 2.00882,-1.3171 1.2183,0 1.26959,0.42425 0.28062,2.32041 -0.90167,1.72871 -0.91087,2.42281 -0.0361,2.72199 1.91827,0.65611 1.38781,4.22412 -0.60364,4.06019 -2.96729,-0.24426 -2.55533,4.55935 0.493,5.74857 2.07362,0.80896 2.91103,0.56728 4.48446,-1.29423 1.46801,-1.73677 1.93471,-1.89596 1.93471,-0.65993 0,0.89595 0.71714,1.91138 1.59365,2.25651 0.91385,0.35983 1.32603,0.18319 0.96627,-0.41411 -1.32995,-2.20806 1.50077,-0.90825 3.3905,1.55686 1.09557,1.42915 2.25305,2.33056 2.57215,2.00312 0.31911,-0.32744 0.32656,0.39988 0.0165,1.61625 -0.33646,1.32016 -0.0771,2.21158 0.64361,2.21158 0.66771,0 0.88338,-0.58863 0.48256,-1.3171 -0.57975,-1.05367 -0.44812,-1.05367 0.65822,0 1.88605,1.79631 2.78859,1.65435 3.34945,-0.52684 0.26078,-1.01416 0.41903,-0.467 0.35168,1.21593 -0.0787,1.97062 -0.76917,3.2334 -1.93918,3.54733 -0.99917,0.26811 -1.8167,0.93432 -1.8167,1.48045 0,0.54613 0.54063,0.65013 1.2014,0.2311 0.82666,-0.52424 0.97949,-0.16852 0.48993,1.14053 -0.61149,1.63508 -0.48357,1.70834 0.91031,0.52132 0.89198,-0.75958 1.54097,-0.94519 1.44221,-0.41245 -0.46776,2.52356 0.17465,5.71016 1.15116,5.71016 0.5981,0 0.75335,-0.55474 0.34497,-1.23275 -0.49925,-0.82886 -0.18267,-1.0123 0.96629,-0.55989 1.07818,0.42453 1.70876,0.14338 1.70876,-0.7619 0,-0.78909 0.69315,-1.70762 1.54032,-2.0412 0.84719,-0.33357 1.54031,-1.33261 1.54031,-2.22009 0,-0.88747 0.48938,-1.61358 1.08751,-1.61358 0.59811,0 0.75506,0.59269 0.3488,1.3171 -0.40628,0.7244 -0.36055,0.96559 0.10165,0.53598 0.46217,-0.42961 1.54914,-0.19254 2.41551,0.52684 1.10211,0.91513 1.35676,0.93424 0.84789,0.0636 -0.40002,-0.68436 -0.23557,-1.55613 0.36545,-1.93728 0.60102,-0.38114 0.95514,-1.71783 0.78692,-2.97042 -0.18557,-1.38174 0.19895,-2.17382 0.97774,-2.014 0.75304,0.15454 1.2836,-0.82538 1.2836,-2.37078 0,-1.4488 0.46209,-2.63418 1.02687,-2.63418 0.56478,0 1.02688,-1.14343 1.02688,-2.54096 0,-1.82266 0.50802,-2.46293 1.79703,-2.26495 2.41885,0.3715 4.15479,-2.40008 4.99064,-7.96805 0.38076,-2.53643 1.52262,-6.80804 2.53745,-9.49245 1.01485,-2.68443 1.81859,-6.85608 1.78613,-9.27038 -0.0324,-2.41427 0.11126,-4.55431 0.3194,-4.75565 0.20814,-0.20133 12.58023,-0.71498 27.49349,-1.14144 l 27.11503,-0.77536 -0.60768,14.09965 c -1.23925,28.75425 -11.21763,54.81018 -29.37635,76.70878 -5.37454,6.48145 -18.54826,18.3452 -22.77115,20.50683 -2.5781,1.31969 -2.9088,1.25232 -3.91516,-0.79756 -1.00206,-2.04113 -1.04827,-1.99058 -0.52291,0.572 0.43906,2.14171 0.0659,3.09138 -1.56762,3.98836 -1.98602,1.09066 -2.14389,0.90304 -2.14389,-2.5476 0,-2.04871 -0.4476,-3.72493 -0.99467,-3.72493 -0.54704,0 -0.74614,-0.66447 -0.44243,-1.47659 0.57671,-1.54207 2.11267,-1.65287 4.21591,-0.30413 1.62793,1.04394 3.94473,-2.67404 5.56948,-8.93787 1.03464,-3.98885 1.02366,-5.23669 -0.0579,-6.57388 -1.70154,-2.10376 -3.15598,-1.1999 -3.15598,1.96128 0,3.46162 -3.74229,11.63793 -5.34149,11.67035 -0.73328,0.0149 -1.90207,-0.69638 -2.59732,-1.58052 -1.81412,-2.30702 -3.14717,0.14011 -2.43805,4.47561 l 0.55609,3.39994 0.728,-4.21471 c 0.59512,-3.44561 0.68363,-3.02428 0.48497,2.30894 -0.13366,3.58802 0.13108,6.28641 0.58832,5.99646 0.45723,-0.28995 0.83131,0.0257 0.83131,0.7014 0,0.67571 -0.69313,0.95567 -1.54031,0.62209 -0.91586,-0.36061 -1.54032,-0.0105 -1.54032,0.86442 0,2.27668 -21.94597,12.12048 -23.48985,10.53632 -0.68442,-0.7023 5.26738,-5.70996 6.13362,-5.16062 0.95382,0.60488 5.14607,-3.76641 4.55433,-4.74884 -0.28871,-0.4793 0.27867,-1.51787 1.26081,-2.30795 1.65116,-1.32821 1.671,-1.27767 0.26312,0.67087 -1.50133,2.07789 -1.49115,2.07982 0.7294,0.13795 1.23863,-1.08316 2.16762,-2.26855 2.06444,-2.63418 -0.1032,-0.36564 0.64991,-1.95067 1.67353,-3.52226 1.02363,-1.57161 2.10883,-4.75223 2.41154,-7.06805 0.30271,-2.31582 0.83873,-4.11196 1.19114,-3.99143 0.35241,0.12055 0.64073,-0.255 0.64073,-0.83452 0,-0.57952 -0.34657,-0.93514 -0.77015,-0.79025 -0.42359,0.14487 -0.77017,-0.41983 -0.77017,-1.25492 0,-0.83507 -0.34657,-1.73922 -0.77015,-2.00917 -0.4236,-0.26998 -0.69278,2.19135 -0.59818,5.46961 0.0945,3.27826 -0.0223,4.77508 -0.25997,3.32627 -1.38083,-8.42114 -2.46443,-18.26123 -2.68371,-24.37045 -0.26879,-7.48853 -0.97496,-8.13693 -4.69959,-4.31512 -1.25624,1.28902 -3.06553,2.34369 -4.02065,2.34369 -1.51695,0 -1.48447,0.20021 0.25671,1.58308 1.66163,1.31968 1.69429,1.47626 0.19628,0.94094 -1.40502,-0.50207 -1.79704,-0.0565 -1.79704,2.04259 0,1.4766 -0.53349,3.02306 -1.18555,3.43657 -0.70758,0.44872 -0.90782,0.29075 -0.49668,-0.39185 0.37887,-0.62902 0.27175,-1.40818 -0.23804,-1.73146 -0.77045,-0.48859 -1.95571,1.74658 -2.56255,4.83249 -0.36212,1.8415 -1.6803,2.04645 -1.69417,0.26342 -0.0117,-1.51013 -0.23499,-1.66461 -0.88498,-0.61246 -0.47809,0.77391 -1.26164,1.33151 -1.74122,1.23912 -0.47958,-0.0924 -1.20411,0.6969 -1.61005,1.75394 -0.40595,1.05705 -0.77056,1.43011 -0.81024,0.82904 -0.0397,-0.60107 -0.99639,-1.1643 -2.12595,-1.25161 -1.89783,-0.14669 -2.56517,0.8975 -2.11743,3.3131 0.0988,0.53273 -0.55081,0.34663 -1.44353,-0.41357 -0.89268,-0.76021 -1.91995,-1.07755 -2.28282,-0.70521 -0.36289,0.37234 -0.0934,0.67699 0.59886,0.67699 0.69225,0 0.98549,0.45345 0.65169,1.00767 -0.33381,0.55421 -1.22858,0.76288 -1.98839,0.46371 -0.7598,-0.29917 -2.90729,0.40819 -4.77222,1.57191 -1.86495,1.16374 -3.78293,1.86721 -4.26218,1.56327 -0.47928,-0.30393 -1.8179,0.55041 -2.9747,1.89854 -1.15684,1.34813 -1.80979,1.85846 -1.45104,1.13406 0.35875,-0.72441 0.16291,-1.3171 -0.4352,-1.3171 -0.59812,0 -1.08749,0.50214 -1.08749,1.11586 0,0.61372 -0.493,0.80322 -1.09556,0.42109 -0.60255,-0.38211 -1.0099,-0.0545 -0.90521,0.72809 0.41134,3.07482 -0.10347,4.26259 -1.59331,3.67598 -0.99075,-0.39011 -1.56354,0.0396 -1.60541,1.20436 -0.0486,1.34793 -0.30249,1.2048 -0.99378,-0.55991 -0.5108,-1.30392 -1.62048,-2.37077 -2.46598,-2.37077 -1.53964,0 -4.44786,-4.20044 -2.92926,-4.23083 0.44346,-0.009 0.11313,-0.47577 -0.73403,-1.03754 -1.02687,-0.68094 -1.11245,-1.02679 -0.25672,-1.03755 2.11692,-0.0265 1.44759,-2.98174 -0.84443,-3.72818 -1.43865,-0.46852 -1.92005,-1.24913 -1.48606,-2.40966 0.3531,-0.94415 0.3167,-1.38283 -0.081,-0.97486 -0.39759,0.40797 -1.38047,-0.0806 -2.18419,-1.08579 -0.80369,-1.00515 -1.19377,-1.27649 -0.86679,-0.60295 0.90276,1.85966 -2.27097,1.02597 -4.85112,-1.2743 -1.24618,-1.11101 -2.64719,-1.89804 -3.11333,-1.74895 -0.46615,0.14909 -0.54685,-0.70107 -0.17933,-1.88923 0.36751,-1.18815 0.28681,-2.09223 -0.17933,-2.00904 -2.234763,0.3988 -3.296235,-0.24287 -2.762538,-1.66994 0.335101,-0.89606 -0.117619,-1.84936 -1.053204,-2.21776 -0.902537,-0.35537 -1.338488,-1.18914 -0.968791,-1.85281 0.384453,-0.69018 0.27204,-0.83088 -0.262625,-0.3287 -0.514136,0.48289 -1.032567,3.09074 -1.152086,5.79522 -0.361091,8.17145 -1.831838,14.29348 -4.235166,17.62897 -3.901677,5.41502 -3.978836,10.06266 -0.29454,17.74182 1.774612,3.69883 5.071816,8.4357 7.327097,10.5264 4.689353,4.3471 4.770563,4.31255 -4.120411,1.75272 z m 86.727404,-12.63012 c 0.32495,-0.53948 0.12117,-1.2787 -0.45283,-1.6427 -0.57399,-0.36401 -1.04362,0.0773 -1.04362,0.98087 0,1.8508 0.61618,2.12332 1.49645,0.66183 z M 73.59104,204.27748 c 0,-2.20589 -0.589931,-3.80741 -1.540319,-4.18164 -1.631976,-0.64258 -2.149504,2.79446 -0.917013,6.09009 1.078716,2.88445 2.457332,1.81377 2.457332,-1.90845 z m 33.88701,-1.69324 c 0,-0.57953 -0.48937,-1.05368 -1.0875,-1.05368 -0.59811,0 -0.80188,0.47415 -0.45281,1.05368 0.34905,0.57951 0.83842,1.05368 1.08748,1.05368 0.24906,0 0.45283,-0.47417 0.45283,-1.05368 z m 85.57531,-15.33636 c -0.56861,-5.43696 -1.33761,-8.36522 -2.28099,-8.68575 -1.15853,-0.39361 -1.33543,1.07207 -0.95127,7.88135 0.49938,8.85164 1.39833,11.7686 3.09145,10.03131 0.62515,-0.64147 0.67781,-4.09234 0.14081,-9.22691 z m -59.01372,-0.67309 c -0.94514,-0.67838 -0.17731,-0.79976 2.3526,-0.37194 2.57275,0.43509 3.92182,0.211 4.28317,-0.71141 0.32885,-0.83945 0.55801,-0.65214 0.60857,0.4974 0.0465,1.05653 0.84844,1.80841 1.87811,1.76074 1.07354,-0.0498 1.28026,-0.29714 0.51344,-0.61463 -0.70598,-0.2923 -1.2689,-1.32173 -1.25094,-2.28758 0.0281,-1.51089 0.24387,-1.46956 1.54512,0.29594 0.85078,1.1543 1.23929,2.99823 0.88802,4.2147 -0.55943,1.93744 -0.47973,1.98463 0.76534,0.45321 1.74444,-2.1456 5.99741,-3.2824 6.04716,-1.61638 0.0202,0.67015 0.6726,0.039 1.45022,-1.40251 0.77761,-1.44154 1.19606,-2.98254 0.92989,-3.42445 -0.98015,-1.62732 0.64456,-0.73693 2.61463,1.43288 l 2.03051,2.23637 -0.61194,-2.40114 c -0.46048,-1.80676 -0.27845,-2.18963 0.73534,-1.54671 0.97981,0.62134 1.10183,0.45072 0.44737,-0.6255 -0.49498,-0.81393 -0.99353,-2.11418 -1.1079,-2.88941 -0.11437,-0.77523 -1.05155,-2.40221 -2.08264,-3.6155 l -1.87467,-2.20601 2.71811,2.035 c 1.49497,1.11925 2.47892,2.43792 2.18657,2.93038 -0.29236,0.49245 0.44838,0.35724 1.6461,-0.3005 2.58493,-1.4195 2.90336,-2.395 0.46892,-1.43643 -1.14897,0.45241 -1.46553,0.26897 -0.96629,-0.5599 0.40839,-0.67801 0.25314,-1.23274 -0.34499,-1.23274 -0.5981,0 -1.08746,-0.9763 -1.08746,-2.16954 0,-1.19324 0.42152,-1.90222 0.93673,-1.57549 0.51519,0.32673 0.82924,-0.15737 0.69789,-1.07575 -0.13136,-0.91839 -0.89947,-2.09878 -1.7069,-2.62308 -0.80742,-0.5243 -1.04986,-0.96054 -0.53874,-0.96942 0.51112,-0.009 0.11929,-0.93455 -0.87074,-2.05709 -0.99006,-1.12252 -1.54408,-2.46596 -1.23121,-2.98541 0.31286,-0.51945 0.0116,-0.95373 -0.66957,-0.96508 -0.68113,-0.0114 -3.77995,-1.29406 -6.88626,-2.8505 -5.01898,-2.51476 -6.4482,-2.76337 -12.83598,-2.23272 -3.95348,0.32844 -9.49864,0.78808 -12.32255,1.02145 -7.64888,0.63209 -9.42856,1.2276 -12.5531,4.20045 -1.56482,1.48885 -2.98393,2.27975 -3.15356,1.75756 -0.16964,-0.52221 -1.21047,-0.70741 -2.31295,-0.41158 -2.03192,0.54523 -2.64026,1.85902 -1.23437,2.66578 0.42359,0.24307 0.20734,0.30331 -0.48055,0.13382 -0.6879,-0.16947 -1.52384,0.14531 -1.85763,0.69953 -0.33383,0.55421 -0.11757,1.00766 0.48053,1.00766 1.23082,0 1.50008,3.80233 0.31733,4.48104 -0.42358,0.24308 -0.19253,0.29747 0.51344,0.12088 0.70599,-0.17659 1.2836,0.1382 1.2836,0.69953 0,0.56133 -0.57761,1.05066 -1.2836,1.08739 -0.70597,0.0367 -0.25157,0.4927 1.00978,1.01324 1.3978,0.57685 2.07263,1.53674 1.72807,2.45807 -0.3149,0.84202 0.39414,2.20122 1.60066,3.06835 1.1913,0.85618 2.031,2.14631 1.86601,2.86696 -0.37488,1.63751 3.04262,2.33334 3.96214,0.80669 0.39635,-0.65803 0.19042,-0.81457 -0.49761,-0.37825 -0.7488,0.47487 -0.96138,0.17641 -0.58711,-0.82434 0.32265,-0.8628 1.21349,-1.32189 1.97963,-1.02023 1.8185,0.71604 4.8979,-1.0819 5.17536,-3.0217 0.11985,-0.83782 -0.41573,-1.52333 -1.19014,-1.52333 -1.05694,0 -1.12469,0.35033 -0.27173,1.40491 0.86294,1.0669 0.75735,1.4049 -0.43887,1.4049 -1.91162,0 -1.6651,-2.92476 0.3691,-4.37919 1.24947,-0.89334 1.23872,-0.98379 -0.0722,-0.60748 -0.84717,0.24317 -2.34898,-0.50452 -3.33736,-1.66153 -1.78562,-2.09029 -1.79704,-2.08843 -1.79704,0.29395 0,2.01172 -0.2479,2.18648 -1.54031,1.08587 -1.87337,-1.59532 -2.00415,-3.87891 -0.25672,-4.48239 1.00184,-0.34599 1.0133,-0.77955 0.0522,-1.97515 -0.98868,-1.22992 -0.82902,-1.78971 0.81,-2.84 1.12276,-0.71948 1.76515,-1.76679 1.42751,-2.32736 -0.33763,-0.56056 -0.12451,-1.01921 0.47358,-1.01921 0.59812,0 1.08749,0.53222 1.08749,1.18269 0,0.77069 0.60526,0.67891 1.73744,-0.26342 1.47973,-1.23162 1.60852,-1.2266 0.86822,0.0338 -0.63229,1.07653 -0.49651,1.24353 0.49825,0.6127 1.26015,-0.79915 7.62807,-1.78554 11.2724,-1.74609 4.24118,0.0459 7.5251,1.19146 9.85566,3.43805 2.30932,2.22611 2.40468,2.61243 0.91988,3.72649 -1.06553,0.79946 -1.26826,1.48912 -0.5682,1.93307 1.36841,0.86779 1.42312,2.67314 0.0811,2.67314 -0.55401,0 -1.30827,-1.23043 -1.67611,-2.7343 -0.49415,-2.02024 -0.89742,-2.3642 -1.54416,-1.3171 -0.48144,0.77947 -0.87534,2.12845 -0.87534,2.99773 0,1.28294 0.16556,1.31243 0.87932,0.15668 0.62528,-1.01247 1.01208,-0.4958 1.3388,1.78828 0.25269,1.76667 0.0811,2.97211 -0.38162,2.67875 -0.46252,-0.29338 -0.84101,0.23379 -0.84101,1.17148 0,0.93769 -0.46963,1.40706 -1.04363,1.04306 -0.57399,-0.36401 -0.79749,-1.07047 -0.49668,-1.5699 0.98652,-1.63788 -1.59117,-2.32132 -3.32274,-0.88096 -1.42736,1.18728 -1.55631,1.17599 -0.82324,-0.0721 0.59003,-1.00456 0.48842,-1.23841 -0.31632,-0.72807 -0.65205,0.41351 -1.22203,1.55361 -1.26661,2.53358 -0.0503,1.10756 -0.27785,1.2809 -0.60115,0.45808 -0.28604,-0.72801 -0.93741,-1.059 -1.44749,-0.73553 -0.51006,0.32348 -0.63158,-0.20289 -0.27002,-1.1697 0.5546,-1.48296 0.33304,-1.57969 -1.41707,-0.61863 -1.14094,0.62656 -2.3288,0.87818 -2.63971,0.55918 -0.31088,-0.319 -1.11853,0.4808 -1.79478,1.77735 -1.0952,2.09979 -1.02014,2.28206 0.68695,1.66818 1.69278,-0.60874 1.72617,-0.53514 0.28606,0.63048 -0.89674,0.72583 -1.89999,2.03091 -2.22942,2.9002 -0.47884,1.26357 -0.61521,1.21075 -0.68002,-0.26342 -0.0445,-1.01417 -0.55943,-1.84394 -1.14408,-1.84394 -0.72118,0 -0.73165,0.63531 -0.0326,1.97565 1.49158,2.85977 5.76492,2.54394 7.12848,-0.52684 0.61117,-1.37636 1.58322,-2.50248 2.16011,-2.50248 1.40857,0 1.32609,1.40145 -0.17297,2.93963 -1.77253,1.81879 -1.87913,4.20263 -0.21718,4.85701 1.76308,0.69422 1.87872,-0.60195 0.20679,-2.31752 -0.8244,-0.84592 -0.86076,-1.26442 -0.10986,-1.26442 0.61731,0 1.38837,0.71123 1.71346,1.58051 0.32509,0.86929 1.52977,1.58052 2.67708,1.58052 1.29016,0 2.09788,0.70346 2.11719,1.84393 0.0284,1.68263 0.12877,1.67165 1.14634,-0.12547 0.8441,-1.49076 0.77411,-2.21417 -0.28794,-2.97645 z m -3.28566,-0.49815 c -0.95721,-0.98215 -0.85442,-2.45856 0.17113,-2.45856 0.47067,0 0.85574,0.71123 0.85574,1.58051 0,1.79056 -0.0751,1.85473 -1.02687,0.87805 z m 10.34979,-15.36609 c -0.43665,-1.32998 2.01004,-3.85589 3.7949,-3.91779 0.53153,-0.0185 0.11437,0.6058 -0.92704,1.38717 -1.04141,0.78136 -1.56455,1.96675 -1.16254,2.63419 0.40201,0.66743 0.28007,1.21352 -0.27099,1.21352 -0.55106,0 -1.1965,-0.59269 -1.43433,-1.31709 z m -34.14951,-0.80744 c -0.35473,-0.58898 -1.14656,-0.7528 -1.7596,-0.36404 -0.68129,0.43205 -0.81776,0.21403 -0.35104,-0.56081 0.58464,-0.97067 1.10294,-0.97859 2.2124,-0.0339 1.45323,1.23755 1.84192,2.0295 0.99608,2.0295 -0.24906,0 -0.74309,-0.48188 -1.09784,-1.07086 z m 2.57755,-6.36706 c 0,-0.61372 0.46209,-0.82282 1.02688,-0.46465 0.56478,0.35816 1.02687,0.8603 1.02687,1.11586 0,0.25556 -0.46209,0.46465 -1.02687,0.46465 -0.56479,0 -1.02688,-0.50214 -1.02688,-1.11586 z m 52.88425,17.97467 c -0.34906,-0.57952 -1.41605,-1.04641 -2.37107,-1.03755 -1.49646,0.0139 -1.52356,0.15731 -0.19612,1.03755 2.01101,1.33353 3.3704,1.33353 2.56719,0 z m 29.10563,-12.18144 c -0.55823,-2.95476 -2.92023,-3.11591 -2.92023,-0.19925 0,1.40052 0.31578,2.87039 0.70172,3.2664 1.09032,1.11879 2.61192,-0.98484 2.21851,-3.06715 z m -84.77261,-18.37661 c 0.29559,-1.15985 0.11844,-1.84308 -0.39368,-1.51833 -0.51212,0.32477 -0.93111,1.27373 -0.93111,2.10882 0,2.18084 0.69776,1.86983 1.32479,-0.59049 z m 33.58909,-7.29255 c 0,-1.91667 -1.88974,-4.29643 -3.41174,-4.29643 -0.52099,0 -0.40613,0.66903 0.25523,1.4867 0.82202,1.01634 0.86181,1.70276 0.12573,2.16955 -0.59219,0.37555 -1.07673,0.10168 -1.07673,-0.60864 0,-0.71032 -0.28813,-0.99583 -0.64031,-0.63447 -0.35215,0.36135 -0.3467,1.44209 0.0121,2.40164 0.55824,1.49269 0.89739,1.5373 2.34875,0.30884 1.54944,-1.31147 1.57828,-1.20773 0.33316,1.19843 -1.24838,2.41248 -1.21933,2.51249 0.34532,1.18809 0.93964,-0.79537 1.70843,-2.24153 1.70843,-3.21371 z M 79.273161,133.09858 c -0.330193,-0.54822 -0.624671,-4.8156 -0.6544,-9.48309 -0.02978,-4.6675 -0.479983,-8.48634 -1.000571,-8.48634 -0.520585,0 -0.91004,-1.06684 -0.865442,-2.37077 0.04455,-1.30392 0.315099,-1.77513 0.601145,-1.04711 0.805504,2.05012 2.398419,0.42992 2.398419,-2.43952 0,-3.11503 -2.550684,-3.44952 -4.071388,-0.53392 -1.470008,2.81842 -1.31269,7.0521 0.488424,13.14425 0.841064,2.84484 1.529208,6.75661 1.529208,8.69283 0,1.93623 0.489368,3.5204 1.087483,3.5204 0.598106,0 0.817315,-0.44853 0.487122,-0.99673 z M 26.169318,101.68402 c 0.249223,-1.792452 -0.182939,-2.360012 -1.797038,-2.360012 -1.598419,0 -2.125177,0.67208 -2.125177,2.711452 0,3.45853 3.435269,3.15071 3.922215,-0.35144 z m 58.937027,-9.614552 c -0.459364,-1.22832 -0.738695,-1.128745 -1.353908,0.48269 -1.359311,3.56043 -1.074424,5.2847 0.506601,3.0661 0.78434,-1.10065 1.165629,-2.69761 0.847307,-3.54879 z m 65.500605,-5.451746 c 0,-0.613724 0.38617,-0.870968 0.85816,-0.571661 0.47197,0.299306 2.20483,0.08972 3.85079,-0.465813 l 2.99265,-1.010022 -3.3884,0.512139 c -2.07869,0.31418 -3.14679,0.110992 -2.76331,-0.525676 1.0562,-1.753555 -0.1037,-1.152317 -2.06333,1.069533 -1.05401,1.195077 -1.34518,2.107359 -0.67258,2.107359 0.65232,0 1.18602,-0.502135 1.18602,-1.115859 z M 110.28057,81.82861 c -0.34123,-0.350136 -1.22692,-0.387562 -1.96818,-0.08314 -0.81918,0.336355 -0.57585,0.586035 0.6204,0.63659 1.0825,0.04573 1.68901,-0.203275 1.34778,-0.553411 z M 95.696105,52.112099 c -0.316166,-0.324415 -1.144755,-6.63e-4 -1.841327,0.71943 -1.006619,1.040631 -0.888661,1.161656 0.574846,0.589847 1.012729,-0.395686 1.582646,-0.98486 1.266481,-1.309277 z M 111.58556,39.264495 c 0,-0.579522 -0.46209,-1.053676 -1.02687,-1.053676 -0.56479,0 -1.02688,0.474154 -1.02688,1.053676 0,0.579522 0.46209,1.053675 1.02688,1.053675 0.56478,0 1.02687,-0.474153 1.02687,-1.053675 z m 23.50296,-10.536757 c 0.69484,0 1.01606,-0.410565 0.71381,-0.912368 -1.04571,-1.736141 -5.59734,-0.03287 -5.44533,2.037704 0.1277,1.739545 0.33207,1.786866 1.80607,0.418088 0.91418,-0.848884 2.23062,-1.543424 2.92545,-1.543424 z m 3.63436,-2.611567 c -1.39772,-1.085033 -1.5516,-1.545953 -0.52403,-1.569619 0.80009,-0.01844 1.17742,-0.318073 0.83846,-0.665859 -0.33893,-0.347798 -1.1392,-0.30072 -1.77834,0.104629 -0.81264,0.515332 -0.6292,1.341151 0.60995,2.746154 0.97465,1.105063 2.01073,1.764327 2.30243,1.465019 0.29168,-0.299296 -0.36012,-1.235434 -1.44847,-2.080292 z m -13.82757,-1.628298 c -0.72428,-0.459308 -2.18163,-0.285935 -3.23855,0.385287 -1.77226,1.125505 -1.69956,1.264 0.935,1.781208 3.04126,0.597054 4.49918,-0.774115 2.30355,-2.166495 z m -7.6938,197.009607 c -0.97573,-1.62 0.36081,-2.66524 1.6788,-1.31286 0.73748,0.75673 0.7552,1.3461 0.0538,1.79087 -0.57499,0.36463 -1.35466,0.14952 -1.73263,-0.47801 z m 6.51406,0.38682 c 0.74127,-0.30437 1.62695,-0.26695 1.96819,0.0832 0.34122,0.35012 -0.26528,0.59915 -1.34778,0.5534 -1.19626,-0.0506 -1.43958,-0.30023 -0.62041,-0.63658 z m 49.82502,-59.82023 c 0,-0.84378 0.39262,-1.28518 0.87248,-0.98086 0.47987,0.30431 0.60663,0.99467 0.28169,1.53416 -0.83036,1.37861 -1.15417,1.22338 -1.15417,-0.5533 z m -64.96917,-14.7156 c -0.70558,-0.87235 -0.80067,-1.72397 -0.23271,-2.08414 0.5282,-0.33498 1.49728,0.0548 2.15348,0.86604 0.70558,0.87236 0.80068,1.72398 0.23272,2.08416 -0.52822,0.33497 -1.49729,-0.0548 -2.15349,-0.86606 z m 72.84191,-1.66273 c 0,-0.57951 0.41883,-1.05367 0.93074,-1.05367 0.5119,0 0.68905,-0.94831 0.39367,-2.10735 -0.30027,-1.17822 -0.0316,-2.10735 0.60957,-2.10735 1.26047,0 1.49249,2.06389 0.52334,4.65536 -0.68751,1.83837 -2.45732,2.27988 -2.45732,0.61301 z m 3.79728,-13.69778 c 0.32025,-2.60784 0.98233,-5.45277 1.47131,-6.32206 1.12162,-1.99394 -0.0818,7.27353 -1.23125,9.48309 -0.45251,0.8697 -0.56045,-0.55196 -0.24006,-3.16103 z m -48.9264,0.0834 c -1.17909,-0.787 -0.93026,-1.13568 1.20238,-1.68491 3.23879,-0.83409 5.96662,-0.36457 6.24318,1.07459 0.26841,1.39674 -5.5525,1.87389 -7.44556,0.61032 z m 49.99759,-13.51782 c -0.21291,-0.43464 -0.2972,-2.68686 -0.18735,-5.00495 0.35574,-7.50444 -1.35312,-17.230712 -3.59492,-20.461182 l -2.15306,-3.102596 2.84391,-0.335382 c 2.58061,-0.304338 2.81269,-0.676808 2.50673,-4.023258 -0.3039,-3.324016 -0.19846,-3.498252 1.06861,-1.766037 1.27764,1.746644 1.42654,1.55455 1.63363,-2.107356 0.14703,-2.599786 -0.0902,-3.530571 -0.66898,-2.623726 -0.72003,1.128371 -1.02392,1.065646 -1.54143,-0.318146 -0.35794,-0.957149 -0.2161,-1.45185 0.31902,-1.112514 1.46879,0.931461 3.14045,-2.98442 2.0376,-4.773097 -0.7586,-1.230325 -0.94254,-1.134851 -0.95524,0.495807 -0.0192,2.462356 -0.87942,1.783904 -1.30581,-1.029853 -0.1703,-1.123849 -0.67012,-2.636065 -1.1107,-3.360467 -0.44058,-0.724402 -0.51026,-1.799888 -0.15483,-2.389979 0.35542,-0.590099 -0.35135,-2.842332 -1.57058,-5.004959 -2.13896,-3.794034 -2.14212,-3.845548 -0.0901,-1.467349 1.16967,1.355596 2.71236,2.222803 3.42821,1.92712 1.02198,-0.422123 1.02583,-0.555476 0.0181,-0.620793 -0.70598,-0.04573 -1.28361,-0.585327 -1.28361,-1.199041 0,-2.251348 2.33492,0.454355 4.03543,4.676276 2.5847,6.417021 2.31113,36.425172 -0.37997,41.682612 -1.02439,2.00132 -1.8146,5.65626 -1.76552,8.16598 0.0844,4.31856 -0.27177,5.50277 -1.12896,3.75289 z m 3.30655,-16.97913 c 0.56297,-2.014142 0.5506,-3.304122 -0.0316,-3.304122 -0.52535,0 -0.9615,0.59269 -0.9692,1.3171 -0.009,0.724402 -0.30701,2.502482 -0.66507,3.951282 -0.92816,3.75545 0.55656,2.00488 1.66595,-1.96426 z m -1.50032,-8.572512 c -0.34906,-0.57951 -1.06946,-1.05367 -1.60091,-1.05367 -0.53146,0 -0.96628,0.47416 -0.96628,1.05367 0,0.57953 0.72042,1.05368 1.60092,1.05368 0.88051,0 1.31533,-0.47415 0.96627,-1.05368 z M 157.6245,105.77651 c 1.10279,-0.71731 1.05277,-1.01568 -0.25672,-1.5313 -0.89454,-0.35222 -1.62642,-0.15315 -1.62642,0.44239 0,0.59553 -0.46211,0.78975 -1.02687,0.43158 -0.5648,-0.35816 -1.0269,-1.80861 -1.0269,-3.22321 0,-1.41461 -0.34657,-2.564752 -0.77015,-2.555882 -1.60965,0.0338 -3.57528,1.897452 -3.0031,2.847412 0.32856,0.54549 -0.29598,0.92426 -1.38785,0.84172 -3.44311,-0.26028 -3.50841,-1.54496 -0.13981,-2.7499 1.78594,-0.638832 3.24716,-1.589282 3.24716,-2.112112 0,-1.49738 6.585,-1.10963 10.40011,0.61241 4.16175,1.878522 7.62168,4.530692 6.89,5.281462 -0.29169,0.2993 -1.36929,-0.40704 -2.39467,-1.56963 -2.35871,-2.674352 -3.59978,-2.689352 -3.59978,-0.0435 0,2.06606 -2.76524,4.26619 -5.32361,4.23564 -1.10266,-0.0131 -1.09924,-0.17996 0.0185,-0.90704 z m 26.00472,-1.18417 c 0,-1.44879 0.23308,-2.04149 0.51793,-1.31708 0.28488,0.72439 0.28488,1.90977 0,2.63417 -0.28485,0.72441 -0.51793,0.13171 -0.51793,-1.31709 z m -0.54872,-4.782262 c -0.99092,-2.64968 -0.69859,-3.33336 0.51192,-1.19735 0.59939,1.05763 0.87348,2.144932 0.60908,2.416222 -0.26439,0.27129 -0.76884,-0.27721 -1.121,-1.218872 z m -2.57606,-44.103055 c -1.6749,-0.95109 -2.0617,-1.636538 -1.22348,-2.168096 0.789,-0.50036 0.97862,-1.961692 0.53221,-4.101454 -0.38143,-1.828274 -0.33866,-2.975886 0.095,-2.550253 0.43372,0.425632 1.34136,-0.0021 2.01698,-0.949879 1.84985,-2.595857 2.68191,-0.104524 1.0458,3.131314 -0.84677,1.674723 -1.02566,3.05293 -0.44414,3.421706 0.53554,0.33961 0.72759,1.026112 0.42678,1.525544 -0.30081,0.499431 -0.005,1.252051 0.65844,1.672478 0.82519,0.523298 1.03212,0.0845 0.65605,-1.391073 -0.30214,-1.185511 -0.18081,-2.767322 0.26961,-3.515136 0.49373,-0.819718 0.7496,0.04131 0.64429,2.168085 -0.20182,4.076724 -1.25747,4.698888 -4.67761,2.756764 z m -13.87162,-3.359477 c -0.37951,-1.014773 -0.18539,-2.358453 0.43137,-2.985948 0.80871,-0.822795 0.93426,-0.553316 0.45023,0.966442 -0.54326,1.705806 -0.46002,1.806189 0.43688,0.526837 1.30014,-1.854542 1.51408,-0.130444 0.23978,1.932283 -0.68651,1.11126 -1.01267,1.019242 -1.55826,-0.439614 z m 4.51172,0.251154 c 0,-1.773895 -3.52801,-5.148259 -4.42276,-4.23016 -1.21609,1.247826 -3.58744,-1.777635 -3.04907,-3.890118 0.36099,-1.416488 0.0803,-1.96579 -0.87617,-1.714458 -0.77404,0.203392 -1.06078,0.170929 -0.6372,-0.07218 0.42359,-0.243084 0.77016,-1.35075 0.77016,-2.461502 0,-1.110755 0.41883,-2.019549 0.93074,-2.019549 0.51192,0 0.68907,0.948308 0.39368,2.107351 -0.41215,1.617181 -0.0315,2.107351 1.63646,2.107351 1.19544,0 2.17352,0.55318 2.17352,1.229292 0,0.676112 0.34584,0.874415 0.76855,0.440689 0.42269,-0.433734 -0.12773,-1.461069 -1.22315,-2.282968 -1.09543,-0.821898 -1.65606,-1.494364 -1.24586,-1.494364 0.41021,0 0.24306,-1.066846 -0.37147,-2.37077 -0.82293,-1.746195 -0.42799,-1.537998 1.4991,0.790256 2.30741,2.787721 3.14904,2.868401 2.74819,0.263419 -0.0668,-0.43464 0.47449,-0.790256 1.20305,-0.790256 1.33835,0 1.78432,5.590528 0.54723,6.859892 -0.34771,0.356796 -0.38819,2.515429 -0.0899,4.796985 0.29822,2.281545 0.25035,4.148259 -0.10641,4.148259 -0.35675,0 -0.64864,-0.637738 -0.64864,-1.417205 z m 4.79269,-0.975271 c 0.2986,-0.495734 -0.26971,-1.82268 -1.26288,-2.948753 -0.99316,-1.126086 -1.50052,-2.360614 -1.12747,-2.743404 0.37307,-0.3828 0.67829,-0.11483 0.67829,0.595475 0,0.710314 0.4621,0.998431 1.02687,0.640266 0.5648,-0.358166 1.03396,-0.03055 1.04261,0.728079 0.0114,1.002235 0.28784,0.947234 1.01116,-0.201242 0.54749,-0.869282 1.00881,-1.106359 1.02517,-0.526837 0.0163,0.579522 0.30181,2.094717 0.63432,3.367094 0.48477,1.855007 0.19087,2.28143 -1.4832,2.152038 -1.14827,-0.08872 -1.84346,-0.566973 -1.54487,-1.062716 z M 92.595567,45.598624 c -0.359756,-0.597286 0.05246,-0.773935 0.966274,-0.414104 1.778983,0.700473 2.104474,1.455705 0.627381,1.455705 -0.53146,0 -1.248603,-0.468718 -1.593655,-1.041601 z m 62.260943,-0.363297 c -0.84913,-1.049839 -0.7944,-1.404897 0.21657,-1.404897 0.74406,0 1.35286,0.632206 1.35286,1.404897 0,0.772693 -0.0974,1.404898 -0.21656,1.404898 -0.11909,0 -0.7279,-0.632205 -1.35287,-1.404898 z m 3.4624,0.334037 c 0.35475,-0.588973 1.07516,-0.798065 1.6009,-0.46465 1.42434,0.903253 1.15875,1.535511 -0.64499,1.535511 -0.88051,0 -1.31065,-0.481888 -0.95591,-1.070861 z m 16.5922,-2.353585 c -0.30995,-1.303923 -0.1763,-4.030309 0.29702,-6.058635 0.47332,-2.028326 0.94323,-3.213711 1.04426,-2.634189 0.10104,0.579522 0.33821,1.881569 0.52708,2.893424 0.18888,1.011867 -0.0599,2.095498 -0.55277,2.408071 -0.5048,0.320127 -0.47594,1.702456 0.0661,3.16521 0.52923,1.428289 0.56166,2.596889 0.072,2.596889 -0.48958,0 -1.14375,-1.066846 -1.45372,-2.37077 z m 2.98998,0.06354 c -1.83558,-2.689065 -1.32368,-3.8395 0.87524,-1.966939 0.83608,0.71199 2.04859,0.959424 2.69446,0.549828 0.87957,-0.557783 0.8818,-0.183866 0.01,1.489804 -1.44804,2.776329 -1.63636,2.772505 -3.57854,-0.0727 z M 94.642054,42.425491 c 0.349057,-0.579522 0.838416,-1.053676 1.087486,-1.053676 0.249059,0 0.452832,0.474154 0.452832,1.053676 0,0.579521 -0.489369,1.053676 -1.087484,1.053676 -0.598116,0 -0.80189,-0.474155 -0.452834,-1.053676 z m 64.026706,0.545224 c -0.27254,-0.279655 -2.26201,-0.740523 -4.42105,-1.024163 -5.136,-0.674731 -5.58846,-1.287548 -1.3275,-1.79797 2.3251,-0.27853 4.07017,0.195868 5.36672,1.45893 1.05671,1.029409 1.6864,1.871655 1.39932,1.871655 -0.28708,0 -0.74496,-0.228806 -1.01749,-0.508452 z m 0.15324,-3.768429 c 0,-0.613724 0.46209,-0.822826 1.02687,-0.46466 0.56479,0.358165 1.02687,0.860305 1.02687,1.115863 0,0.255559 -0.46208,0.46465 -1.02687,0.46465 -0.56478,0 -1.02687,-0.502139 -1.02687,-1.115853 z m -9.91444,-1.563781 c -0.33445,-0.894276 -0.37863,-1.861382 -0.0982,-2.14914 0.28043,-0.287748 0.75634,0.443924 1.0576,1.625958 0.63991,2.510835 -0.0711,2.898546 -0.95941,0.523182 z m 20.52551,-2.015556 c 0,-0.843793 0.38507,-1.289961 0.85573,-0.991487 0.47066,0.298464 0.85574,0.988843 0.85574,1.534163 0,0.545319 -0.38508,0.991487 -0.85574,0.991487 -0.47066,0 -0.85573,-0.690368 -0.85573,-1.534163 z m 3.20956,-1.696965 c -0.37228,-0.618076 -0.45663,-1.349759 -0.18745,-1.625959 0.26915,-0.2762 0.76302,0.229501 1.09747,1.123777 0.69435,1.856692 0.10258,2.183279 -0.91002,0.502182 z M 158.822,31.826556 c 0,-0.613724 -0.50821,-0.793586 -1.12934,-0.399691 -0.81965,0.519799 -0.82189,0.126768 -0.009,-1.433326 0.74333,-1.42518 0.76969,-2.269701 0.0782,-2.506209 -0.5736,-0.196184 -1.32349,-2.131049 -1.66647,-4.299703 -0.53572,-3.387325 -0.3514,-3.940726 1.3078,-3.92686 2.69264,0.02244 5.43829,2.074182 3.72844,2.786077 -0.70597,0.293933 -1.28359,1.708282 -1.28359,3.142988 0,1.434716 0.44192,2.328328 0.98201,1.985799 0.54013,-0.342518 0.74463,-1.257625 0.45443,-2.033562 -0.29017,-0.775938 0.21609,-1.703636 1.12507,-2.061537 0.96037,-0.378154 1.38986,-0.214423 1.02529,0.390871 -0.34505,0.572883 -0.0484,1.041601 0.65961,1.041601 0.70785,0 -0.0912,1.066846 -1.77571,2.370769 -1.84281,1.426478 -2.91481,3.105225 -2.69141,4.214704 0.20421,1.014163 0.10636,1.843932 -0.21744,1.843932 -0.3238,0 -0.58872,-0.502139 -0.58872,-1.115853 z m 7.18814,0.701748 c 0,-0.227752 0.69314,-0.687028 1.54032,-1.0206 0.84717,-0.333584 1.54032,-0.147231 1.54032,0.414105 0,0.561335 -0.69315,1.0206 -1.54032,1.0206 -0.84718,0 -1.54032,-0.186342 -1.54032,-0.414105 z m 4.10753,-1.631058 c 0,-0.545319 0.4568,-1.281175 1.01511,-1.635242 0.58209,-0.369145 0.75424,0.05384 0.40356,0.991488 -0.68265,1.825409 -1.41867,2.159392 -1.41867,0.643754 z m -19.82393,-1.487285 c -0.41265,-1.103388 -0.28197,-1.58654 0.32498,-1.201632 0.55831,0.354066 1.01512,0.156491 1.01512,-0.439046 0,-0.595527 0.69315,-0.809865 1.54032,-0.476282 0.84717,0.333572 1.54033,1.080649 1.54033,1.660171 0,0.579521 -0.66331,0.792501 -1.47398,0.473301 -0.8107,-0.319211 -1.65008,-0.03824 -1.8653,0.624249 -0.21993,0.676955 -0.69365,0.396277 -1.08147,-0.640761 z m 13.07283,-0.36003 c 0.14968,-1.046501 0.61319,-1.823712 1.02999,-1.727122 1.55945,0.361369 1.619,1.142247 0.18052,2.367229 -1.20577,1.026819 -1.43184,0.907268 -1.21051,-0.640107 z m 4.24116,-1.280817 c -0.31755,-0.527217 -0.26631,-1.790384 0.1139,-2.807033 0.47194,-1.261957 0.31011,-1.606719 -0.51011,-1.086582 -0.66076,0.419036 -1.20138,0.220228 -1.20138,-0.441787 0,-0.662023 0.57763,-0.993352 1.28361,-0.736297 0.70597,0.257054 1.15943,1.563454 1.0077,2.903097 -0.26107,2.304927 -0.174,2.341131 1.62118,0.67411 2.35133,-2.183447 3.39687,-2.258068 2.62239,-0.187153 -0.32385,0.865953 -1.00249,1.312121 -1.50808,0.991487 -0.5056,-0.320633 -0.91927,-0.08082 -0.91927,0.532897 0,1.366175 -1.717,1.473755 -2.50994,0.157261 z m -20.0814,-2.202435 c -0.92552,-0.613723 -1.05218,-1.027839 -0.31733,-1.037533 0.67265,-0.0084 1.50858,0.458012 1.85764,1.037533 0.78792,1.30817 0.43244,1.30817 -1.54031,0 z m 6.16126,0 c -0.92551,-0.613723 -1.05216,-1.027839 -0.31733,-1.037533 0.67266,-0.0084 1.5086,0.458012 1.85766,1.037533 0.78792,1.30817 0.43243,1.30817 -1.54033,0 z m -22.55076,-4.546273 c -1.32104,-2.176789 -1.29019,-2.218146 0.56462,-0.756845 1.07911,0.850179 2.10828,1.63247 2.28706,1.738428 0.17876,0.105957 -0.0753,0.446526 -0.56464,0.756834 -0.48931,0.310307 -1.51848,-0.471983 -2.28704,-1.738417 z m -3.12121,0.331571 c -0.92551,-0.613724 -1.05216,-1.02784 -0.31733,-1.037534 0.67265,-0.0084 1.5086,0.458012 1.85766,1.037534 0.78792,1.308169 0.43243,1.308169 -1.54033,0 z"
       id="path853" />
  </g>
</svg>
